# xmcd
#
# Track frame offsets: 
#        150
#        31614
#        47527
#        61050
#        77568
#        99259
#        130855
#        140623
#        156772
#        157072
#        177062
#        193185
#        207245
#        219219
#        239403
#        262500
#
# Disc length: 3956 seconds
#
# Revision: 1
# Processed by: cddbd v1.5.2PL0 Copyright (c) Steve Scherf et al.
# Submitted via: ExactAudioCopy v0.95b2
#
DISCID=c70f7210
DTITLE=Djeèaci - D R A M A
DYEAR=2008
DGENRE=Hip-Hop
TTITLE0=Kraljevi
TTITLE1=H323
TTITLE2=Kralj ribara
TTITLE3=Dinamit
TTITLE4=Kamiondzije
TTITLE5=Krek kuæa feat. Neki tvrdi likovi
TTITLE6=Liu Kang
TTITLE7=Narodna
TTITLE8=Ne postoji dobar sretan kraj
TTITLE9=Noæna pjesma feat. Kid Raða
TTITLE10=Meko sranje
TTITLE11=Pleska
TTITLE12=Punjene paprike
TTITLE13=Truba feat. Kid Raða
TTITLE14=Ubij se
TTITLE15=The Govno
EXTD=
EXTT0=
EXTT1=
EXTT2=
EXTT3=
EXTT4=
EXTT5=
EXTT6=
EXTT7=
EXTT8=
EXTT9=
EXTT10=
EXTT11=
EXTT12=
EXTT13=
EXTT14=
EXTT15=
PLAYORDER=
